HIERARCHY
ROOT Hips
{
	OFFSET 0.00000 0.00000 0.00000
	CHANNELS 6 Xposition Yposition Zposition Zrotation Yrotation Xrotation 
	JOINT LHipJoint
	{
		OFFSET 0 0 0
		CHANNELS 3 Zrotation Yrotation Xrotation
		JOINT LeftHip
		{
			OFFSET 1.75344 -1.53157 0.77399
			CHANNELS 3 Zrotation Yrotation Xrotation
			JOINT LeftKnee
			{
				OFFSET 2.25415 -6.19323 0.00000
				CHANNELS 3 Zrotation Yrotation Xrotation
				JOINT LeftAnkle
				{
					OFFSET 2.30342 -6.32861 0.00000
					CHANNELS 3 Zrotation Yrotation Xrotation
					JOINT LeftToe
					{
						OFFSET 0.10958 -0.30108 1.49206
						CHANNELS 3 Zrotation Yrotation Xrotation
						End Site
						{
							OFFSET 0.00000 -0.00000 0.77783
						}
					}
				}
			}
		}
	}
	JOINT RHipJoint
	{
		OFFSET 0 0 0
		CHANNELS 3 Zrotation Yrotation Xrotation
		JOINT RightHip
		{
			OFFSET -1.81912 -1.53156 0.77399
			CHANNELS 3 Zrotation Yrotation Xrotation
			JOINT RightKnee
			{
				OFFSET -2.22882 -6.12365 0.00000
				CHANNELS 3 Zrotation Yrotation Xrotation
				JOINT RightAnkle
				{
					OFFSET -2.21943 -6.09785 0.00000
					CHANNELS 3 Zrotation Yrotation Xrotation
					JOINT RightToe
					{
						OFFSET -0.18931 -0.52012 1.59379
						CHANNELS 3 Zrotation Yrotation Xrotation
						End Site
						{
							OFFSET -0.00000 -0.00000 0.84686
						}
					}
				}
			}
		}
	}
	JOINT lowerback
	{
		OFFSET 0 0 0
		CHANNELS 3 Zrotation Yrotation Xrotation
		JOINT Chest
		{
			OFFSET -0.00200 1.66634 -0.14248
			CHANNELS 3 Zrotation Yrotation Xrotation
			JOINT Chest2
			{
				OFFSET -0.00875 1.64542 0.09514
				CHANNELS 3 Zrotation Yrotation Xrotation
				JOINT lowerneck
				{
					OFFSET 0 0 0
					CHANNELS 3 Zrotation Yrotation Xrotation
					JOINT Neck
					{
						OFFSET 0.02257 1.59605 0.00839
						CHANNELS 3 Zrotation Yrotation Xrotation
						JOINT Head
						{
							OFFSET -0.10214 1.57530 -0.23335
							CHANNELS 3 Zrotation Yrotation Xrotation
							End Site
							{
								OFFSET -0.03588 1.60717 -0.08062
							}
						}
					}
				}
				JOINT LeftCollar
				{
					OFFSET 0 0 0
					CHANNELS 3 Zrotation Yrotation Xrotation
					JOINT LeftShoulder
					{
						OFFSET 2.54983 1.10186 0.40078
CHANNELS 3 Zrotation Xrotation Yrotation
						JOINT LeftElbow
						{
OFFSET 0 -4.288400 0.000000
CHANNELS 3 Zrotation Xrotation Yrotation
							JOINT LeftWrist
							{
OFFSET 0 -3.065520 -0.000000
CHANNELS 3 Zrotation Xrotation Yrotation
								JOINT lhand
								{
									OFFSET 0 0 0
CHANNELS 3 Zrotation Xrotation Yrotation
									JOINT LFingers
									{
OFFSET 0 -0.753040 0.000000
CHANNELS 3 Zrotation Xrotation Yrotation
										End Site
										{
OFFSET 0 -0.607120 0.000000
										}
									}
								}
								JOINT LThumb
								{
OFFSET 0 0.000000 0.000000
CHANNELS 3 Zrotation Xrotation Yrotation
									End Site
									{
OFFSET 0 -0.616390 0.616390
									}
								}
							}
						}
					}
				}
				JOINT RightCollar
				{
					OFFSET 0 0 0
					CHANNELS 3 Zrotation Yrotation Xrotation
					JOINT RightShoulder
					{
						OFFSET -2.60909 1.35448 0.21802
CHANNELS 3 Zrotation Xrotation Yrotation
						JOINT RightElbow
						{
OFFSET 0 -4.521720 -0.000000
CHANNELS 3 Zrotation Xrotation Yrotation
							JOINT RightWrist
							{
OFFSET 0 -2.891400 0.000000
CHANNELS 3 Zrotation Xrotation Yrotation
								JOINT rhand
								{
									OFFSET 0 0 0
CHANNELS 3 Zrotation Xrotation Yrotation
									JOINT RFingers
									{
OFFSET 0 -0.680540 0.000000
CHANNELS 3 Zrotation Xrotation Yrotation
										End Site
										{
OFFSET 0 -0.548670 0.000000
										}
									}
								}
								JOINT RThumb
								{
OFFSET 0 0.000000 0.000000
CHANNELS 3 Zrotation Xrotation Yrotation
									End Site
									{
OFFSET 0 -0.557050 0.557050
									}
								}
							}
						}
					}
				}
			}
		}
	}
}
MOTION
Frames: 11
Frame Time: 0.008333333333333333
8.661800 15.318100 21.466900 -178.092000 0.435400 176.494000 0.000000 0.000000 0.000000 -21.791300 -15.402000 -1.433700 2.533100 9.897800 28.646300 1.004700 8.969100 -24.184700 7.718500 -15.908200 -51.542200 0.000000 0.000000 0.000000 26.373600 9.073800 2.691100 -1.396900 -7.477000 21.136500 0.322100 -19.331100 -24.620300 -0.234400 3.116100 -8.602200 2.540300 1.682100 8.883000 0.388800 2.655100 -3.773500 -1.452000 1.174000 -8.907000 -7.298600 -3.105300 -7.477000 5.705000 -4.481800 14.157000 2.655700 -2.319500 5.789800 -0.000000 -0.000000 0.000000 1.709900 16.401000 -28.100200 21.464500 -32.366600 6.296800 5.839300 8.543700 32.544000 0.000000 0.000000 0.000000 -7.125000 0.000000 0.000000 -14.597700 -1.779900 -15.551600 -0.000000 -0.000000 0.000000 -6.023900 13.980300 43.198100 -19.195400 -29.660700 -5.127200 0.027700 15.257600 55.104200 0.000000 0.000000 0.000000 7.125000 0.000000 -0.000000 78.807400 71.849300 -59.517200
8.663144 15.319689 21.466717 -178.077947 0.334582 176.502554 0.000000 0.000000 0.000000 -21.765759 -15.451676 -1.447204 2.534505 9.900366 28.654610 1.017226 8.894922 -24.228877 7.740619 -15.925125 -51.622977 0.000000 0.000000 0.000000 26.395474 9.038361 2.710653 -1.394395 -7.470523 21.117009 0.300164 -19.266393 -24.718368 -0.226029 3.060070 -8.446146 2.558936 1.655460 8.863325 0.385928 2.621250 -3.776738 -1.459393 1.156647 -8.899484 -7.347604 -3.093874 -7.452437 5.732129 -4.464508 14.141602 2.674092 -2.311984 5.781246 0.000000 0.000000 0.000000 1.675500 16.364767 -28.007020 21.512770 -32.421958 6.322646 5.863863 8.527630 32.539234 0.000000 0.000000 0.000000 -7.125000 0.000000 0.000000 -14.583952 -1.778067 -15.535469 0.000000 0.000000 0.000000 -5.977829 13.913271 42.913427 -19.115907 -29.562387 -5.087973 -0.220190 15.874790 55.017313 0.000000 0.000000 0.000000 7.125000 0.000000 0.000000 78.447816 71.918834 -59.251285
8.663689 15.321122 21.468221 -178.073885 0.383927 176.515993 0.000000 0.000000 0.000000 -21.745947 -15.418443 -1.487751 2.537265 9.905375 28.670780 1.029885 8.851075 -24.297699 7.747062 -15.930060 -51.646512 0.000000 0.000000 0.000000 26.394945 9.057032 2.710066 -1.392911 -7.466666 21.105444 0.285512 -19.173554 -24.706640 -0.229071 3.079021 -8.499028 2.573287 1.677356 8.875912 0.382679 2.653100 -3.786549 -1.476756 1.170868 -8.915505 -7.390546 -3.086356 -7.421368 5.753641 -4.452057 14.115192 2.689397 -2.306778 5.768206 0.000000 0.000000 0.000000 1.647605 16.332441 -27.937020 21.558177 -32.474030 6.346982 5.919378 8.477433 32.549322 0.000000 0.000000 0.000000 -7.125000 0.000000 0.000000 -14.553796 -1.794063 -15.505128 0.000000 0.000000 0.000000 -5.941373 13.861097 42.654709 -19.048536 -29.478951 -5.054740 -0.495169 16.473550 54.906402 0.000000 0.000000 0.000000 7.125000 0.000000 0.000000 78.003369 71.992720 -58.909255
8.662834 15.322283 21.472681 -178.087327 0.696341 176.537990 0.000000 0.000000 0.000000 -21.736171 -15.239965 -1.575677 2.542398 9.914662 28.700720 1.042777 8.860362 -24.409699 7.726043 -15.913991 -51.569768 0.000000 0.000000 0.000000 26.355168 9.170498 2.674200 -1.393217 -7.467400 21.107766 0.283618 -19.031431 -24.502560 -0.252106 3.229332 -8.917943 2.580130 1.784285 8.945019 0.378768 2.800050 -3.807874 -1.511584 1.240402 -8.972757 -7.422869 -3.085684 -7.378903 5.765311 -4.448085 14.069487 2.699295 -2.305617 5.747310 0.000000 0.000000 0.000000 1.631108 16.306962 -27.907630 21.598565 -32.520346 6.368673 6.029117 8.367450 32.585434 0.000000 0.000000 0.000000 -7.125000 0.000000 0.000000 -14.494893 -1.841295 -15.449892 0.000000 0.000000 0.000000 -5.921759 13.834945 42.441464 -19.002404 -29.421576 -5.032010 -0.817603 17.040025 54.753403 0.000000 0.000000 0.000000 7.125000 0.000000 0.000000 77.410253 72.074230 -58.433883
8.662822 15.322200 21.474300 -178.081230 0.733207 176.559987 0.000000 0.000000 0.000000 -21.720533 -15.244400 -1.615021 2.546731 9.922396 28.725730 1.046300 8.853663 -24.433106 7.704757 -15.897699 -51.492092 0.000000 0.000000 0.000000 26.355357 9.184625 2.639043 -1.393655 -7.468621 21.111420 0.295356 -19.063341 -24.444935 -0.261464 3.289628 -9.086133 2.597765 1.798002 8.944849 0.374103 2.820838 -3.817164 -1.529981 1.249231 -8.980940 -7.424240 -3.089941 -7.348560 5.748339 -4.450419 14.035240 2.694362 -2.307787 5.731297 0.000000 0.000000 0.000000 1.644807 16.257813 -27.933483 21.615284 -32.539528 6.377664 6.007943 8.287841 32.517898 0.000000 0.000000 0.000000 -7.125000 0.000000 0.000000 -14.503624 -1.773689 -15.442882 0.000000 0.000000 0.000000 -5.901390 13.810925 42.226042 -18.963866 -29.373660 -5.013099 -0.901082 17.348982 54.648719 0.000000 0.000000 0.000000 7.125000 0.000000 0.000000 77.060002 72.081224 -58.104655
8.663139 15.321678 21.474921 -178.068890 0.673222 176.580496 0.000000 0.000000 0.000000 -21.703683 -15.311077 -1.636365 2.550841 9.929693 28.749356 1.045463 8.847736 -24.421715 7.686082 -15.883406 -51.423965 0.000000 0.000000 0.000000 26.369327 9.165874 2.607449 -1.394194 -7.470126 21.115883 0.308237 -19.143449 -24.451944 -0.262573 3.295905 -9.103790 2.616398 1.779228 8.918890 0.370129 2.797201 -3.820079 -1.539893 1.236924 -8.968856 -7.413379 -3.096233 -7.325535 5.718996 -4.454997 14.006347 2.683224 -2.311148 5.717866 0.000000 0.000000 0.000000 1.667534 16.199023 -27.974842 21.625028 -32.550697 6.382916 5.925356 8.229172 32.413083 0.000000 0.000000 0.000000 -7.125000 0.000000 0.000000 -14.544611 -1.663198 -15.461798 0.000000 0.000000 0.000000 -5.882650 13.784137 42.008530 -18.928915 -29.330204 -4.995982 -0.858994 17.530690 54.573691 0.000000 0.000000 0.000000 7.125000 0.000000 0.000000 76.850844 72.050162 -57.866184
8.663566 15.321434 21.476265 -178.067668 0.681226 176.585995 0.000000 0.000000 0.000000 -21.696840 -15.311933 -1.660378 2.555729 9.938492 28.777708 1.036175 8.910243 -24.395257 7.694759 -15.890127 -51.455738 0.000000 0.000000 0.000000 26.370732 9.192209 2.609098 -1.395232 -7.472631 21.123460 0.280925 -19.049719 -24.555572 -0.232328 3.098546 -8.553568 2.604178 1.786194 8.895488 0.375995 2.803861 -3.804314 -1.526512 1.241629 -8.938428 -7.396515 -3.104359 -7.330362 5.673475 -4.458297 13.988017 2.665749 -2.313897 5.711939 0.000000 0.000000 0.000000 1.666801 16.132727 -27.963111 21.654173 -32.583936 6.398619 5.719687 8.266566 32.325280 0.000000 0.000000 0.000000 -7.125000 0.000000 0.000000 -14.654533 -1.555598 -15.559378 0.000000 0.000000 0.000000 -5.883199 13.721324 41.778176 -18.901358 -29.295865 -4.982479 -0.456333 17.405248 54.614629 0.000000 0.000000 0.000000 7.125000 0.000000 0.000000 77.144133 71.917754 -57.989121
8.663966 15.322048 21.477693 -178.068663 0.684491 176.601748 0.000000 0.000000 0.000000 -21.688915 -15.310737 -1.697444 2.560090 9.946348 28.803121 1.032901 8.930211 -24.384403 7.714825 -15.905467 -51.528969 0.000000 0.000000 0.000000 26.366096 9.216299 2.600494 -1.395301 -7.472753 21.123859 0.256134 -18.954409 -24.633927 -0.205214 2.914074 -8.039871 2.593509 1.790998 8.870091 0.378258 2.807749 -3.792984 -1.517426 1.244754 -8.911574 -7.388963 -3.112320 -7.342866 5.645995 -4.461984 13.968688 2.655369 -2.315899 5.707647 0.000000 0.000000 0.000000 1.670779 16.083364 -27.944035 21.695762 -32.631392 6.421029 5.640167 8.227916 32.318121 0.000000 0.000000 0.000000 -7.125000 0.000000 0.000000 -14.698139 -1.539810 -15.604940 0.000000 0.000000 0.000000 -5.873163 13.654964 41.564450 -18.858975 -29.242985 -4.961770 -0.026846 17.188907 54.664547 0.000000 0.000000 0.000000 7.125000 0.000000 0.000000 77.474862 71.778113 -58.139605
8.664333 15.323698 21.479220 -178.072329 0.682047 176.629855 0.000000 0.000000 0.000000 -21.679689 -15.307071 -1.750236 2.563818 9.953070 28.824996 1.036873 8.898927 -24.392346 7.748615 -15.931191 -51.652150 0.000000 0.000000 0.000000 26.354181 9.237685 2.579537 -1.394201 -7.470003 21.115610 0.234382 -18.857196 -24.681831 -0.181873 2.745127 -7.570181 2.584711 1.793197 8.842289 0.376180 2.808299 -3.786996 -1.513516 1.245976 -8.889027 -7.392629 -3.120079 -7.364618 5.640251 -4.466139 13.948158 2.653536 -2.316999 5.705325 0.000000 0.000000 0.000000 1.680433 16.054402 -27.916112 21.752342 -32.695977 6.451519 5.712634 8.097647 32.408124 0.000000 0.000000 0.000000 -7.125000 0.000000 0.000000 -14.661844 -1.634640 -15.587832 0.000000 0.000000 0.000000 -5.850372 13.584330 41.370757 -18.798729 -29.167769 -4.932380 0.434961 16.863051 54.725282 0.000000 0.000000 0.000000 7.125000 0.000000 0.000000 77.850699 71.629758 -58.323277
8.664999 15.324499 21.480349 -178.069506 0.625144 176.656464 0.000000 0.000000 0.000000 -21.668216 -15.343588 -1.792246 2.566347 9.957545 28.839482 1.034705 8.935978 -24.403933 7.801722 -15.971341 -51.845165 0.000000 0.000000 0.000000 26.354695 9.217790 2.533670 -1.393351 -7.467803 21.109009 0.254210 -18.938534 -24.627106 -0.184339 2.764865 -7.624815 2.590538 1.774083 8.832857 0.364968 2.782294 -3.791291 -1.524231 1.232673 -8.888394 -7.376378 -3.114212 -7.335705 5.632611 -4.452125 13.858094 2.650055 -2.307916 5.670807 0.000000 0.000000 0.000000 1.713048 16.045456 -27.895825 21.816061 -32.768449 6.486002 5.796382 7.940872 32.519292 0.000000 0.000000 0.000000 -7.125000 0.000000 0.000000 -14.620408 -1.751334 -15.570124 0.000000 0.000000 0.000000 -5.801225 13.544395 41.210658 -18.731095 -29.083119 -4.899496 0.783708 16.544084 54.853854 0.000000 0.000000 0.000000 7.125000 0.000000 0.000000 78.373990 71.535063 -58.716299
8.665776 15.325022 21.481112 -178.067432 0.556732 176.681416 0.000000 0.000000 0.000000 -21.659579 -15.392657 -1.827576 2.568674 9.961659 28.852755 1.030830 8.993367 -24.417703 7.845065 -16.004090 -52.002658 0.000000 0.000000 0.000000 26.356585 9.187234 2.485164 -1.392193 -7.464822 21.100044 0.285229 -19.067761 -24.544647 -0.195485 2.846199 -7.850785 2.591521 1.751558 8.825580 0.354640 2.751285 -3.796237 -1.530610 1.217194 -8.890192 -7.356315 -3.106184 -7.300298 5.621471 -4.434865 13.758829 2.645203 -2.297212 5.631928 0.000000 0.000000 0.000000 1.747129 16.034682 -27.885757 21.873016 -32.833178 6.516851 5.862979 7.790135 32.594136 0.000000 0.000000 0.000000 -7.125000 0.000000 0.000000 -14.586888 -1.831057 -15.552062 0.000000 0.000000 0.000000 -5.754668 13.510854 41.061183 -18.665089 -29.000420 -4.867438 1.038597 16.299337 54.983875 0.000000 0.000000 0.000000 7.125000 0.000000 0.000000 78.861402 71.473283 -59.114781
